<svg width="14" height="15" viewBox="0 0 14 15" fill="none" xmlns="http://www.w3.org/2000/svg">
<path d="M7 13.25C9.48528 13.25 11.5 11.2353 11.5 8.75C11.5 6.26472 9.48528 4.25 7 4.25C4.51472 4.25 2.5 6.26472 2.5 8.75C2.5 11.2353 4.51472 13.25 7 13.25Z" stroke="#000001" stroke-linecap="round" stroke-linejoin="round"/>
<path d="M2.5 8.75H0.5" stroke="#000001" stroke-linecap="round" stroke-linejoin="round"/>
<path d="M0.5 12.25C0.998979 12.2515 1.49237 12.145 1.94633 11.9379C2.40029 11.7307 2.80408 11.4279 3.13 11.05" stroke="#000001" stroke-linecap="round" stroke-linejoin="round"/>
<path d="M3.13 6.45001C2.80408 6.07218 2.40029 5.76931 1.94633 5.56218C1.49237 5.35505 0.998979 5.24856 0.5 5.25001" stroke="#000001" stroke-linecap="round" stroke-linejoin="round"/>
<path d="M11.5 8.75H13.5" stroke="#000001" stroke-linecap="round" stroke-linejoin="round"/>
<path d="M13.5 12.25C13.001 12.2515 12.5076 12.145 12.0537 11.9379C11.5997 11.7307 11.1959 11.4279 10.87 11.05" stroke="#000001" stroke-linecap="round" stroke-linejoin="round"/>
<path d="M10.87 6.45001C11.1959 6.07218 11.5997 5.76931 12.0537 5.56218C12.5076 5.35505 13.001 5.24856 13.5 5.25001" stroke="#000001" stroke-linecap="round" stroke-linejoin="round"/>
<path d="M8.24 4.42C8.62263 4.20143 8.9407 3.88561 9.16197 3.50453C9.38324 3.12345 9.49986 2.69066 9.5 2.25" stroke="#000001" stroke-linecap="round" stroke-linejoin="round"/>
<path d="M4.5 2.25C4.50014 2.69066 4.61676 3.12345 4.83803 3.50453C5.0593 3.88561 5.37736 4.20143 5.76 4.42" stroke="#000001" stroke-linecap="round" stroke-linejoin="round"/>
<path d="M2.61 7.75H11.39" stroke="#000001" stroke-linecap="round" stroke-linejoin="round"/>
</svg>
