<svg width="20" height="19" viewBox="0 0 20 19" fill="none" xmlns="http://www.w3.org/2000/svg">
<mask id="path-1-outside-1_4001_4463" maskUnits="userSpaceOnUse" x="-0.381836" y="-0.375" width="21" height="20" fill="black">
<rect fill="white" x="-0.381836" y="-0.375" width="21" height="20"/>
<path d="M16.7502 12.625C16.0715 12.6245 15.4192 12.8881 14.9314 13.36L12.2802 11.2975C12.5066 10.9026 12.6255 10.4552 12.6252 10C12.6251 9.8428 12.611 9.68593 12.583 9.53125L14.4064 8.92656C14.7048 9.52135 15.2174 9.98101 15.8411 10.213C16.4648 10.445 17.1532 10.4321 17.7677 10.177C18.3823 9.92177 18.8774 9.44325 19.1533 8.83772C19.4292 8.23219 19.4655 7.54461 19.2548 6.91341C19.0441 6.28221 18.6021 5.75426 18.0178 5.43585C17.4335 5.11743 16.7503 5.03219 16.1057 5.1973C15.461 5.3624 14.9029 5.76558 14.5436 6.32567C14.1843 6.88577 14.0505 7.56118 14.1692 8.21594L12.3439 8.82344C12.1259 8.38853 11.7912 8.02277 11.3773 7.76701C10.9635 7.51124 10.4867 7.37552 10.0002 7.375C9.7592 7.37488 9.5194 7.40833 9.28766 7.47438L8.39704 5.47094C8.93225 5.13372 9.32769 4.61458 9.5106 4.00901C9.69351 3.40344 9.65159 2.75219 9.39255 2.17508C9.13351 1.59796 8.67477 1.1338 8.10074 0.867987C7.52671 0.602178 6.876 0.552601 6.26832 0.728378C5.66064 0.904155 5.13688 1.29346 4.7934 1.82467C4.44992 2.35589 4.30982 2.99327 4.39887 3.61956C4.48793 4.24584 4.80016 4.81891 5.2781 5.23331C5.75605 5.64772 6.36758 5.87559 7.00016 5.875C7.24113 5.87512 7.48093 5.84167 7.71266 5.77563L8.60329 7.77906C8.30723 7.96474 8.05131 8.20776 7.85058 8.49383C7.64985 8.77989 7.50837 9.10322 7.43447 9.44478C7.36057 9.78634 7.35573 10.1392 7.42025 10.4827C7.48477 10.8262 7.61734 11.1532 7.81016 11.4447L4.93766 13.9947C4.43086 13.5663 3.78064 13.3458 3.11782 13.3775C2.455 13.4092 1.82878 13.6907 1.36515 14.1655C0.901525 14.6402 0.634901 15.2729 0.618926 15.9363C0.602951 16.5997 0.838811 17.2445 1.27905 17.741C1.71929 18.2375 2.33123 18.5489 2.99176 18.6124C3.65228 18.676 4.31237 18.487 4.8392 18.0836C5.36603 17.6801 5.72051 17.0921 5.83131 16.4378C5.94211 15.7836 5.80102 15.1116 5.43641 14.5572L8.30516 12.0072C8.80044 12.4265 9.4338 12.6469 10.0824 12.6255C10.7309 12.6042 11.3485 12.3428 11.8152 11.8919L14.4664 13.9544C14.1816 14.4562 14.0701 15.0378 14.1491 15.6094C14.2281 16.1809 14.4932 16.7106 14.9034 17.1163C15.3137 17.5221 15.8461 17.7813 16.4185 17.8541C16.9909 17.9268 17.5713 17.8089 18.07 17.5186C18.5686 17.2284 18.9578 16.7819 19.1772 16.2483C19.3966 15.7146 19.4341 15.1235 19.2838 14.5665C19.1336 14.0094 18.804 13.5173 18.346 13.1664C17.888 12.8154 17.3272 12.6252 16.7502 12.625ZM16.7502 5.875C17.121 5.875 17.4835 5.98497 17.7919 6.19099C18.1002 6.39702 18.3405 6.68986 18.4824 7.03247C18.6244 7.37508 18.6615 7.75208 18.5891 8.1158C18.5168 8.47951 18.3382 8.8136 18.076 9.07583C17.8138 9.33805 17.4797 9.51663 17.116 9.58897C16.7522 9.66132 16.3752 9.62419 16.0326 9.48228C15.69 9.34036 15.3972 9.10004 15.1912 8.79169C14.9851 8.48335 14.8752 8.12084 14.8752 7.75C14.8752 7.25272 15.0727 6.77581 15.4243 6.42418C15.776 6.07254 16.2529 5.875 16.7502 5.875ZM5.12516 3.25C5.12516 2.87916 5.23513 2.51665 5.44116 2.20831C5.64719 1.89996 5.94002 1.65964 6.28263 1.51773C6.62524 1.37581 7.00224 1.33868 7.36596 1.41103C7.72967 1.48338 8.06377 1.66195 8.32599 1.92418C8.58821 2.1864 8.76679 2.52049 8.83914 2.88421C8.91148 3.24792 8.87435 3.62492 8.73244 3.96753C8.59052 4.31014 8.3502 4.60298 8.04186 4.80901C7.73352 5.01503 7.371 5.125 7.00016 5.125C6.50288 5.125 6.02597 4.92746 5.67434 4.57583C5.32271 4.2242 5.12516 3.74728 5.12516 3.25ZM3.25016 17.875C2.87932 17.875 2.51681 17.765 2.20847 17.559C1.90013 17.353 1.6598 17.0601 1.51789 16.7175C1.37598 16.3749 1.33884 15.9979 1.41119 15.6342C1.48354 15.2705 1.66212 14.9364 1.92434 14.6742C2.18656 14.412 2.52066 14.2334 2.88437 14.161C3.24808 14.0887 3.62508 14.1258 3.9677 14.2677C4.31031 14.4096 4.60314 14.65 4.80917 14.9583C5.0152 15.2666 5.12516 15.6292 5.12516 16C5.12516 16.4973 4.92762 16.9742 4.57599 17.3258C4.22436 17.6775 3.74745 17.875 3.25016 17.875ZM10.0002 11.875C9.62932 11.875 9.26681 11.765 8.95847 11.559C8.65013 11.353 8.4098 11.0601 8.26789 10.7175C8.12598 10.3749 8.08884 9.99792 8.16119 9.63421C8.23354 9.27049 8.41212 8.9364 8.67434 8.67418C8.93656 8.41195 9.27066 8.23338 9.63437 8.16103C9.99808 8.08868 10.3751 8.12581 10.7177 8.26773C11.0603 8.40964 11.3531 8.64996 11.5592 8.95831C11.7652 9.26665 11.8752 9.62916 11.8752 10C11.8752 10.4973 11.6776 10.9742 11.326 11.3258C10.9744 11.6775 10.4974 11.875 10.0002 11.875ZM16.7502 17.125C16.3793 17.125 16.0168 17.015 15.7085 16.809C15.4001 16.603 15.1598 16.3101 15.0179 15.9675C14.876 15.6249 14.8388 15.2479 14.9112 14.8842C14.9835 14.5205 15.1621 14.1864 15.4243 13.9242C15.6866 13.662 16.0207 13.4834 16.3844 13.411C16.7481 13.3387 17.1251 13.3758 17.4677 13.5177C17.8103 13.6596 18.1031 13.9 18.3092 14.2083C18.5152 14.5166 18.6252 14.8792 18.6252 15.25C18.6252 15.7473 18.4276 16.2242 18.076 16.5758C17.7244 16.9275 17.2474 17.125 16.7502 17.125Z"/>
</mask>
<path d="M16.7502 12.625C16.0715 12.6245 15.4192 12.8881 14.9314 13.36L12.2802 11.2975C12.5066 10.9026 12.6255 10.4552 12.6252 10C12.6251 9.8428 12.611 9.68593 12.583 9.53125L14.4064 8.92656C14.7048 9.52135 15.2174 9.98101 15.8411 10.213C16.4648 10.445 17.1532 10.4321 17.7677 10.177C18.3823 9.92177 18.8774 9.44325 19.1533 8.83772C19.4292 8.23219 19.4655 7.54461 19.2548 6.91341C19.0441 6.28221 18.6021 5.75426 18.0178 5.43585C17.4335 5.11743 16.7503 5.03219 16.1057 5.1973C15.461 5.3624 14.9029 5.76558 14.5436 6.32567C14.1843 6.88577 14.0505 7.56118 14.1692 8.21594L12.3439 8.82344C12.1259 8.38853 11.7912 8.02277 11.3773 7.76701C10.9635 7.51124 10.4867 7.37552 10.0002 7.375C9.7592 7.37488 9.5194 7.40833 9.28766 7.47438L8.39704 5.47094C8.93225 5.13372 9.32769 4.61458 9.5106 4.00901C9.69351 3.40344 9.65159 2.75219 9.39255 2.17508C9.13351 1.59796 8.67477 1.1338 8.10074 0.867987C7.52671 0.602178 6.876 0.552601 6.26832 0.728378C5.66064 0.904155 5.13688 1.29346 4.7934 1.82467C4.44992 2.35589 4.30982 2.99327 4.39887 3.61956C4.48793 4.24584 4.80016 4.81891 5.2781 5.23331C5.75605 5.64772 6.36758 5.87559 7.00016 5.875C7.24113 5.87512 7.48093 5.84167 7.71266 5.77563L8.60329 7.77906C8.30723 7.96474 8.05131 8.20776 7.85058 8.49383C7.64985 8.77989 7.50837 9.10322 7.43447 9.44478C7.36057 9.78634 7.35573 10.1392 7.42025 10.4827C7.48477 10.8262 7.61734 11.1532 7.81016 11.4447L4.93766 13.9947C4.43086 13.5663 3.78064 13.3458 3.11782 13.3775C2.455 13.4092 1.82878 13.6907 1.36515 14.1655C0.901525 14.6402 0.634901 15.2729 0.618926 15.9363C0.602951 16.5997 0.838811 17.2445 1.27905 17.741C1.71929 18.2375 2.33123 18.5489 2.99176 18.6124C3.65228 18.676 4.31237 18.487 4.8392 18.0836C5.36603 17.6801 5.72051 17.0921 5.83131 16.4378C5.94211 15.7836 5.80102 15.1116 5.43641 14.5572L8.30516 12.0072C8.80044 12.4265 9.4338 12.6469 10.0824 12.6255C10.7309 12.6042 11.3485 12.3428 11.8152 11.8919L14.4664 13.9544C14.1816 14.4562 14.0701 15.0378 14.1491 15.6094C14.2281 16.1809 14.4932 16.7106 14.9034 17.1163C15.3137 17.5221 15.8461 17.7813 16.4185 17.8541C16.9909 17.9268 17.5713 17.8089 18.07 17.5186C18.5686 17.2284 18.9578 16.7819 19.1772 16.2483C19.3966 15.7146 19.4341 15.1235 19.2838 14.5665C19.1336 14.0094 18.804 13.5173 18.346 13.1664C17.888 12.8154 17.3272 12.6252 16.7502 12.625ZM16.7502 5.875C17.121 5.875 17.4835 5.98497 17.7919 6.19099C18.1002 6.39702 18.3405 6.68986 18.4824 7.03247C18.6244 7.37508 18.6615 7.75208 18.5891 8.1158C18.5168 8.47951 18.3382 8.8136 18.076 9.07583C17.8138 9.33805 17.4797 9.51663 17.116 9.58897C16.7522 9.66132 16.3752 9.62419 16.0326 9.48228C15.69 9.34036 15.3972 9.10004 15.1912 8.79169C14.9851 8.48335 14.8752 8.12084 14.8752 7.75C14.8752 7.25272 15.0727 6.77581 15.4243 6.42418C15.776 6.07254 16.2529 5.875 16.7502 5.875ZM5.12516 3.25C5.12516 2.87916 5.23513 2.51665 5.44116 2.20831C5.64719 1.89996 5.94002 1.65964 6.28263 1.51773C6.62524 1.37581 7.00224 1.33868 7.36596 1.41103C7.72967 1.48338 8.06377 1.66195 8.32599 1.92418C8.58821 2.1864 8.76679 2.52049 8.83914 2.88421C8.91148 3.24792 8.87435 3.62492 8.73244 3.96753C8.59052 4.31014 8.3502 4.60298 8.04186 4.80901C7.73352 5.01503 7.371 5.125 7.00016 5.125C6.50288 5.125 6.02597 4.92746 5.67434 4.57583C5.32271 4.2242 5.12516 3.74728 5.12516 3.25ZM3.25016 17.875C2.87932 17.875 2.51681 17.765 2.20847 17.559C1.90013 17.353 1.6598 17.0601 1.51789 16.7175C1.37598 16.3749 1.33884 15.9979 1.41119 15.6342C1.48354 15.2705 1.66212 14.9364 1.92434 14.6742C2.18656 14.412 2.52066 14.2334 2.88437 14.161C3.24808 14.0887 3.62508 14.1258 3.9677 14.2677C4.31031 14.4096 4.60314 14.65 4.80917 14.9583C5.0152 15.2666 5.12516 15.6292 5.12516 16C5.12516 16.4973 4.92762 16.9742 4.57599 17.3258C4.22436 17.6775 3.74745 17.875 3.25016 17.875ZM10.0002 11.875C9.62932 11.875 9.26681 11.765 8.95847 11.559C8.65013 11.353 8.4098 11.0601 8.26789 10.7175C8.12598 10.3749 8.08884 9.99792 8.16119 9.63421C8.23354 9.27049 8.41212 8.9364 8.67434 8.67418C8.93656 8.41195 9.27066 8.23338 9.63437 8.16103C9.99808 8.08868 10.3751 8.12581 10.7177 8.26773C11.0603 8.40964 11.3531 8.64996 11.5592 8.95831C11.7652 9.26665 11.8752 9.62916 11.8752 10C11.8752 10.4973 11.6776 10.9742 11.326 11.3258C10.9744 11.6775 10.4974 11.875 10.0002 11.875ZM16.7502 17.125C16.3793 17.125 16.0168 17.015 15.7085 16.809C15.4001 16.603 15.1598 16.3101 15.0179 15.9675C14.876 15.6249 14.8388 15.2479 14.9112 14.8842C14.9835 14.5205 15.1621 14.1864 15.4243 13.9242C15.6866 13.662 16.0207 13.4834 16.3844 13.411C16.7481 13.3387 17.1251 13.3758 17.4677 13.5177C17.8103 13.6596 18.1031 13.9 18.3092 14.2083C18.5152 14.5166 18.6252 14.8792 18.6252 15.25C18.6252 15.7473 18.4276 16.2242 18.076 16.5758C17.7244 16.9275 17.2474 17.125 16.7502 17.125Z" fill="black"/>
<path d="M16.7502 12.625C16.0715 12.6245 15.4192 12.8881 14.9314 13.36L12.2802 11.2975C12.5066 10.9026 12.6255 10.4552 12.6252 10C12.6251 9.8428 12.611 9.68593 12.583 9.53125L14.4064 8.92656C14.7048 9.52135 15.2174 9.98101 15.8411 10.213C16.4648 10.445 17.1532 10.4321 17.7677 10.177C18.3823 9.92177 18.8774 9.44325 19.1533 8.83772C19.4292 8.23219 19.4655 7.54461 19.2548 6.91341C19.0441 6.28221 18.6021 5.75426 18.0178 5.43585C17.4335 5.11743 16.7503 5.03219 16.1057 5.1973C15.461 5.3624 14.9029 5.76558 14.5436 6.32567C14.1843 6.88577 14.0505 7.56118 14.1692 8.21594L12.3439 8.82344C12.1259 8.38853 11.7912 8.02277 11.3773 7.76701C10.9635 7.51124 10.4867 7.37552 10.0002 7.375C9.7592 7.37488 9.5194 7.40833 9.28766 7.47438L8.39704 5.47094C8.93225 5.13372 9.32769 4.61458 9.5106 4.00901C9.69351 3.40344 9.65159 2.75219 9.39255 2.17508C9.13351 1.59796 8.67477 1.1338 8.10074 0.867987C7.52671 0.602178 6.876 0.552601 6.26832 0.728378C5.66064 0.904155 5.13688 1.29346 4.7934 1.82467C4.44992 2.35589 4.30982 2.99327 4.39887 3.61956C4.48793 4.24584 4.80016 4.81891 5.2781 5.23331C5.75605 5.64772 6.36758 5.87559 7.00016 5.875C7.24113 5.87512 7.48093 5.84167 7.71266 5.77563L8.60329 7.77906C8.30723 7.96474 8.05131 8.20776 7.85058 8.49383C7.64985 8.77989 7.50837 9.10322 7.43447 9.44478C7.36057 9.78634 7.35573 10.1392 7.42025 10.4827C7.48477 10.8262 7.61734 11.1532 7.81016 11.4447L4.93766 13.9947C4.43086 13.5663 3.78064 13.3458 3.11782 13.3775C2.455 13.4092 1.82878 13.6907 1.36515 14.1655C0.901525 14.6402 0.634901 15.2729 0.618926 15.9363C0.602951 16.5997 0.838811 17.2445 1.27905 17.741C1.71929 18.2375 2.33123 18.5489 2.99176 18.6124C3.65228 18.676 4.31237 18.487 4.8392 18.0836C5.36603 17.6801 5.72051 17.0921 5.83131 16.4378C5.94211 15.7836 5.80102 15.1116 5.43641 14.5572L8.30516 12.0072C8.80044 12.4265 9.4338 12.6469 10.0824 12.6255C10.7309 12.6042 11.3485 12.3428 11.8152 11.8919L14.4664 13.9544C14.1816 14.4562 14.0701 15.0378 14.1491 15.6094C14.2281 16.1809 14.4932 16.7106 14.9034 17.1163C15.3137 17.5221 15.8461 17.7813 16.4185 17.8541C16.9909 17.9268 17.5713 17.8089 18.07 17.5186C18.5686 17.2284 18.9578 16.7819 19.1772 16.2483C19.3966 15.7146 19.4341 15.1235 19.2838 14.5665C19.1336 14.0094 18.804 13.5173 18.346 13.1664C17.888 12.8154 17.3272 12.6252 16.7502 12.625ZM16.7502 5.875C17.121 5.875 17.4835 5.98497 17.7919 6.19099C18.1002 6.39702 18.3405 6.68986 18.4824 7.03247C18.6244 7.37508 18.6615 7.75208 18.5891 8.1158C18.5168 8.47951 18.3382 8.8136 18.076 9.07583C17.8138 9.33805 17.4797 9.51663 17.116 9.58897C16.7522 9.66132 16.3752 9.62419 16.0326 9.48228C15.69 9.34036 15.3972 9.10004 15.1912 8.79169C14.9851 8.48335 14.8752 8.12084 14.8752 7.75C14.8752 7.25272 15.0727 6.77581 15.4243 6.42418C15.776 6.07254 16.2529 5.875 16.7502 5.875ZM5.12516 3.25C5.12516 2.87916 5.23513 2.51665 5.44116 2.20831C5.64719 1.89996 5.94002 1.65964 6.28263 1.51773C6.62524 1.37581 7.00224 1.33868 7.36596 1.41103C7.72967 1.48338 8.06377 1.66195 8.32599 1.92418C8.58821 2.1864 8.76679 2.52049 8.83914 2.88421C8.91148 3.24792 8.87435 3.62492 8.73244 3.96753C8.59052 4.31014 8.3502 4.60298 8.04186 4.80901C7.73352 5.01503 7.371 5.125 7.00016 5.125C6.50288 5.125 6.02597 4.92746 5.67434 4.57583C5.32271 4.2242 5.12516 3.74728 5.12516 3.25ZM3.25016 17.875C2.87932 17.875 2.51681 17.765 2.20847 17.559C1.90013 17.353 1.6598 17.0601 1.51789 16.7175C1.37598 16.3749 1.33884 15.9979 1.41119 15.6342C1.48354 15.2705 1.66212 14.9364 1.92434 14.6742C2.18656 14.412 2.52066 14.2334 2.88437 14.161C3.24808 14.0887 3.62508 14.1258 3.9677 14.2677C4.31031 14.4096 4.60314 14.65 4.80917 14.9583C5.0152 15.2666 5.12516 15.6292 5.12516 16C5.12516 16.4973 4.92762 16.9742 4.57599 17.3258C4.22436 17.6775 3.74745 17.875 3.25016 17.875ZM10.0002 11.875C9.62932 11.875 9.26681 11.765 8.95847 11.559C8.65013 11.353 8.4098 11.0601 8.26789 10.7175C8.12598 10.3749 8.08884 9.99792 8.16119 9.63421C8.23354 9.27049 8.41212 8.9364 8.67434 8.67418C8.93656 8.41195 9.27066 8.23338 9.63437 8.16103C9.99808 8.08868 10.3751 8.12581 10.7177 8.26773C11.0603 8.40964 11.3531 8.64996 11.5592 8.95831C11.7652 9.26665 11.8752 9.62916 11.8752 10C11.8752 10.4973 11.6776 10.9742 11.326 11.3258C10.9744 11.6775 10.4974 11.875 10.0002 11.875ZM16.7502 17.125C16.3793 17.125 16.0168 17.015 15.7085 16.809C15.4001 16.603 15.1598 16.3101 15.0179 15.9675C14.876 15.6249 14.8388 15.2479 14.9112 14.8842C14.9835 14.5205 15.1621 14.1864 15.4243 13.9242C15.6866 13.662 16.0207 13.4834 16.3844 13.411C16.7481 13.3387 17.1251 13.3758 17.4677 13.5177C17.8103 13.6596 18.1031 13.9 18.3092 14.2083C18.5152 14.5166 18.6252 14.8792 18.6252 15.25C18.6252 15.7473 18.4276 16.2242 18.076 16.5758C17.7244 16.9275 17.2474 17.125 16.7502 17.125Z" stroke="black" stroke-width="0.5" mask="url(#path-1-outside-1_4001_4463)"/>
</svg>
