<svg width="239" height="77" viewBox="0 0 239 77" fill="none" xmlns="http://www.w3.org/2000/svg">
<path d="M53.0646 35.5215V35.3215H52.8646H50.5312H50.3312V35.5215V38.1883L50.0703 38.1392C50.0703 38.1392 50.0703 38.1392 50.0703 38.1392C49.6884 38.0668 49.2497 37.9845 48.8142 37.9352L48.814 37.9351C47.5831 37.7972 46.2227 37.8992 44.6157 38.8233C41.4621 40.6366 39.8312 44.0484 39.8312 48.209C39.8312 53.4508 43.0434 58.3908 47.1848 59.8025C48.4596 60.2375 49.3809 60.0004 50.1288 59.7156L50.1306 59.7148L50.4479 59.5904L50.4485 59.5901C50.9338 59.398 51.2265 59.284 51.6979 59.284C52.1694 59.284 52.4633 59.3981 52.9485 59.5902L52.9497 59.5906L53.267 59.7139L53.2681 59.7143C54.015 59.9992 54.935 60.235 56.2082 59.8039L56.2083 59.8038C60.3644 58.3946 63.5646 53.4481 63.5646 48.209C63.5646 44.0486 61.9339 40.6305 58.7787 38.8219L58.6792 38.9954L58.7787 38.8219C57.1731 37.9016 55.8128 37.7996 54.5832 37.9375C54.1599 37.9841 53.7357 38.063 53.362 38.1324L53.3262 38.1391L53.3257 38.1391L53.0646 38.1883V35.5215ZM50.3312 42.2645C50.2356 42.2193 50.1424 42.1696 50.0518 42.1153L50.0517 42.1153L49.0414 41.5111L48.8646 41.4054L48.7641 41.5853L47.5963 43.6769L47.5016 43.8464L47.6683 43.9461L48.6784 44.5501C48.6785 44.5501 48.6785 44.5502 48.6785 44.5502C49.567 45.0828 50.5987 45.3881 51.6979 45.3881C52.7584 45.3881 53.7997 45.0989 54.7172 44.5502L54.7174 44.5501L55.7277 43.9448L55.8941 43.845L55.7995 43.6756L54.6317 41.5852L54.5312 41.4053L54.3543 41.5112L53.3458 42.115C53.3457 42.115 53.3456 42.1151 53.3456 42.1151C53.2541 42.1694 53.1604 42.2192 53.0646 42.2644V41.0425C53.2057 41.0204 53.3424 40.9973 53.4746 40.9735C53.6146 40.9492 53.7477 40.9248 53.8739 40.9005C54.2385 40.8315 54.5486 40.7738 54.8781 40.7373L54.8784 40.7372C55.6611 40.6492 56.431 40.6983 57.4491 41.2834L57.4493 41.2835C59.548 42.4863 60.8312 44.8251 60.8312 48.209C60.8312 50.3179 60.178 52.3078 59.1629 53.8923C58.1464 55.4789 56.7763 56.6457 55.3543 57.128C55.1057 57.2121 54.9256 57.2338 54.7625 57.2205C54.5962 57.2069 54.4338 57.1562 54.2158 57.073C54.2154 57.0729 54.215 57.0727 54.2145 57.0725L53.9965 56.9858L53.9955 56.9854L53.9894 56.9829C53.4878 56.7802 52.7137 56.4673 51.6979 56.4673C50.6793 56.4673 49.9038 56.7819 49.401 56.9858L49.3991 56.9866L49.3979 56.9871L49.1804 57.0736C49.1799 57.0738 49.1794 57.074 49.179 57.0742C48.9613 57.1568 48.7995 57.2075 48.6338 57.2211C48.4716 57.2343 48.2921 57.2127 48.0444 57.1281L48.0442 57.1281C46.6243 56.6447 45.2535 55.4775 44.2358 53.8909C43.2195 52.3064 42.5646 50.3172 42.5646 48.209C42.5646 44.839 43.961 42.6878 46.0694 41.4747C47.1215 40.8707 47.7652 40.6517 48.5163 40.7359C48.8523 40.7775 49.1866 40.8318 49.5187 40.8989L49.5187 40.8989L49.5217 40.8995L49.9184 40.9732L49.9187 40.9732C50.0519 40.9978 50.1894 41.021 50.3312 41.043V42.2645Z" fill="#274C4B" stroke="#274C4B" stroke-width="0.4"/>
<path d="M27.8056 60.4C25.539 60.4 23.5923 60.0133 21.9656 59.24C20.3656 58.4667 18.9123 57.3067 17.6056 55.76L21.2056 52.16C22.0323 53.2533 22.9923 54.1067 24.0856 54.72C25.179 55.3067 26.5123 55.6 28.0856 55.6C29.499 55.6 30.619 55.32 31.4456 54.76C32.299 54.2 32.7256 53.4267 32.7256 52.44C32.7256 51.5867 32.4856 50.8933 32.0056 50.36C31.5256 49.8267 30.8856 49.3733 30.0856 49C29.3123 48.6267 28.4456 48.2933 27.4856 48C26.5523 47.68 25.6056 47.32 24.6456 46.92C23.7123 46.52 22.8456 46.0267 22.0456 45.44C21.2723 44.8267 20.6456 44.0533 20.1656 43.12C19.6856 42.16 19.4456 40.96 19.4456 39.52C19.4456 37.8133 19.859 36.36 20.6856 35.16C21.5123 33.96 22.6456 33.04 24.0856 32.4C25.5256 31.76 27.1523 31.44 28.9656 31.44C30.8856 31.44 32.619 31.8 34.1656 32.52C35.7123 33.24 36.979 34.1733 37.9656 35.32L34.3656 38.92C33.539 38.0133 32.6856 37.3467 31.8056 36.92C30.9523 36.4933 29.979 36.28 28.8856 36.28C27.6323 36.28 26.6456 36.52 25.9256 37C25.2056 37.48 24.8456 38.1733 24.8456 39.08C24.8456 39.8533 25.0856 40.48 25.5656 40.96C26.0456 41.44 26.6723 41.8533 27.4456 42.2C28.2456 42.5467 29.1123 42.88 30.0456 43.2C31.0056 43.52 31.9523 43.88 32.8856 44.28C33.8456 44.68 34.7123 45.2 35.4856 45.84C36.2856 46.48 36.9256 47.3067 37.4056 48.32C37.8856 49.3067 38.1256 50.5333 38.1256 52C38.1256 54.6133 37.2056 56.6667 35.3656 58.16C33.5256 59.6533 31.0056 60.4 27.8056 60.4ZM69.5766 60V55.16H76.7366C78.5499 55.16 80.1366 54.7867 81.4966 54.04C82.8566 53.2667 83.9099 52.1867 84.6566 50.8C85.4299 49.4133 85.8166 47.7733 85.8166 45.88C85.8166 44.04 85.4299 42.44 84.6566 41.08C83.8832 39.6933 82.8166 38.6267 81.4566 37.88C80.0966 37.1067 78.5232 36.72 76.7366 36.72H69.4566V31.88H76.8166C78.8966 31.88 80.8166 32.2267 82.5766 32.92C84.3632 33.6133 85.9099 34.6 87.2166 35.88C88.5499 37.1333 89.5766 38.6133 90.2966 40.32C91.0432 42.0267 91.4166 43.8933 91.4166 45.92C91.4166 47.9467 91.0432 49.8267 90.2966 51.56C89.5766 53.2667 88.5632 54.76 87.2566 56.04C85.9499 57.2933 84.4032 58.2667 82.6166 58.96C80.8566 59.6533 78.9499 60 76.8966 60H69.5766ZM65.8566 60V31.88H71.2966V60H65.8566ZM103.259 60.4C101.499 60.4 99.9127 59.96 98.4994 59.08C97.086 58.2 95.9794 57 95.1794 55.48C94.3794 53.96 93.9794 52.2533 93.9794 50.36C93.9794 48.44 94.3794 46.72 95.1794 45.2C95.9794 43.68 97.086 42.48 98.4994 41.6C99.9127 40.72 101.499 40.28 103.259 40.28C104.646 40.28 105.886 40.56 106.979 41.12C108.073 41.68 108.939 42.4667 109.579 43.48C110.246 44.4667 110.606 45.5867 110.659 46.84V53.8C110.606 55.08 110.246 56.2133 109.579 57.2C108.939 58.1867 108.073 58.9733 106.979 59.56C105.886 60.12 104.646 60.4 103.259 60.4ZM104.219 55.56C105.686 55.56 106.873 55.08 107.779 54.12C108.686 53.1333 109.139 51.8667 109.139 50.32C109.139 49.3067 108.926 48.4133 108.499 47.64C108.099 46.84 107.526 46.2267 106.779 45.8C106.059 45.3467 105.206 45.12 104.219 45.12C103.259 45.12 102.406 45.3467 101.659 45.8C100.939 46.2267 100.366 46.84 99.9394 47.64C99.5394 48.4133 99.3394 49.3067 99.3394 50.32C99.3394 51.36 99.5394 52.28 99.9394 53.08C100.366 53.8533 100.939 54.4667 101.659 54.92C102.406 55.3467 103.259 55.56 104.219 55.56ZM108.859 60V54.8L109.699 50.08L108.859 45.44V40.68H114.059V60H108.859ZM118.695 60V40.68H123.935V60H118.695ZM131.295 60V48.6C131.295 47.48 130.935 46.6133 130.215 46C129.522 45.36 128.655 45.04 127.615 45.04C126.922 45.04 126.295 45.1867 125.735 45.48C125.175 45.7467 124.735 46.1467 124.415 46.68C124.095 47.2133 123.935 47.8533 123.935 48.6L121.895 47.6C121.895 46.1067 122.215 44.8133 122.855 43.72C123.522 42.6267 124.415 41.7867 125.535 41.2C126.655 40.5867 127.922 40.28 129.335 40.28C130.668 40.28 131.882 40.5867 132.975 41.2C134.068 41.7867 134.935 42.6267 135.575 43.72C136.215 44.7867 136.535 46.08 136.535 47.6V60H131.295ZM143.895 60V48.6C143.895 47.48 143.535 46.6133 142.815 46C142.122 45.36 141.255 45.04 140.215 45.04C139.548 45.04 138.922 45.1867 138.335 45.48C137.775 45.7467 137.335 46.1467 137.015 46.68C136.695 47.2133 136.535 47.8533 136.535 48.6L133.535 47.88C133.642 46.3333 134.055 45 134.775 43.88C135.495 42.7333 136.442 41.8533 137.615 41.24C138.788 40.6 140.095 40.28 141.535 40.28C142.975 40.28 144.268 40.5867 145.415 41.2C146.562 41.7867 147.468 42.64 148.135 43.76C148.802 44.88 149.135 46.2133 149.135 47.76V60H143.895ZM169.568 60V31.88H175.008V60H169.568ZM173.568 60V55.2H189.128V60H173.568ZM173.568 47.96V43.32H187.728V47.96H173.568ZM173.568 36.68V31.88H188.928V36.68H173.568ZM206.282 60.44C204.229 60.44 202.309 60.0667 200.522 59.32C198.762 58.5733 197.216 57.5467 195.882 56.24C194.576 54.9067 193.549 53.36 192.802 51.6C192.056 49.8133 191.682 47.9067 191.682 45.88C191.682 43.8533 192.042 41.9733 192.762 40.24C193.509 38.48 194.536 36.9467 195.842 35.64C197.176 34.3067 198.722 33.28 200.482 32.56C202.242 31.8133 204.149 31.44 206.202 31.44C208.282 31.44 210.202 31.8133 211.962 32.56C213.722 33.28 215.256 34.3067 216.562 35.64C217.896 36.9467 218.936 38.48 219.682 40.24C220.429 42 220.802 43.8933 220.802 45.92C220.802 47.9467 220.429 49.84 219.682 51.6C218.936 53.36 217.896 54.9067 216.562 56.24C215.256 57.5467 213.722 58.5733 211.962 59.32C210.229 60.0667 208.336 60.44 206.282 60.44ZM206.202 55.36C208.016 55.36 209.589 54.96 210.922 54.16C212.256 53.36 213.296 52.2533 214.042 50.84C214.816 49.4267 215.202 47.7733 215.202 45.88C215.202 44.4933 214.989 43.2267 214.562 42.08C214.136 40.9333 213.522 39.9467 212.722 39.12C211.922 38.2667 210.976 37.6133 209.882 37.16C208.789 36.7067 207.562 36.48 206.202 36.48C204.442 36.48 202.882 36.88 201.522 37.68C200.189 38.4533 199.136 39.5467 198.362 40.96C197.616 42.3733 197.242 44.0133 197.242 45.88C197.242 47.2933 197.456 48.5867 197.882 49.76C198.336 50.9333 198.949 51.9333 199.722 52.76C200.522 53.5867 201.469 54.2267 202.562 54.68C203.682 55.1333 204.896 55.36 206.202 55.36Z" fill="#274C4B"/>
<g clip-path="url(#clip0_205_800)">
<path d="M159.252 34.2369C160.141 26.1569 163.699 19.8724 171.703 16.2812" stroke="#274C4B" stroke-width="5" stroke-linecap="round" stroke-linejoin="round"/>
<path d="M166.827 24.2599C175.992 24.2599 182.302 21.0581 183.039 12.5745V10.627H177.123C163.859 10.627 159.458 14.5221 159.438 19.391C159.438 20.3648 159.438 22.3124 162.385 24.2599H166.807H166.827Z" stroke="#274C4B" stroke-width="4" stroke-linecap="round" stroke-linejoin="round"/>
</g>
<g clip-path="url(#clip1_205_800)">
<path d="M160.266 47.0465C159.395 34.4027 155.913 24.5687 148.077 18.9492" stroke="#274C4B" stroke-width="4" stroke-linecap="round" stroke-linejoin="round"/>
<path d="M150.306 27.0966C140.343 27.0966 133.481 23.7777 132.68 14.9837V12.9648H139.112C153.533 12.9648 158.317 17.0025 158.34 22.0495C158.34 23.059 158.34 25.0778 155.135 27.0966H150.328H150.306Z" stroke="#274C4B" stroke-width="4" stroke-linecap="round" stroke-linejoin="round"/>
</g>
<rect x="156" y="31" width="6" height="30" rx="3" fill="#274C4B"/>
<defs>
<clipPath id="clip0_205_800">
<rect width="37.1683" height="33.2512" fill="white" transform="translate(152.83)"/>
</clipPath>
<clipPath id="clip1_205_800">
<rect width="37.1683" height="33.2512" fill="white" transform="matrix(-1 0 0 1 164.168 3.65625)"/>
</clipPath>
</defs>
</svg>
