<svg width="239" height="78" viewBox="0 0 239 78" fill="none" xmlns="http://www.w3.org/2000/svg">
<path d="M46.3312 43.2645C46.2356 43.2193 46.1424 43.1696 46.0518 43.1153L46.0517 43.1153L45.0414 42.5111L44.8646 42.4054L44.7641 42.5853L43.5963 44.6769L43.5016 44.8464L43.6683 44.9461L44.6784 45.5501C44.6785 45.5501 44.6785 45.5502 44.6785 45.5502L44.6786 45.5502L44.7812 45.3786M46.3312 43.2645L49.3458 43.115L49.4479 43.2869L49.3452 43.1153L49.3455 43.1152C49.254 43.1694 49.1604 43.2192 49.0646 43.2644M46.3312 43.2645V42.043C46.1894 42.021 46.0519 41.9978 45.9187 41.9732L45.9184 41.9732L45.5217 41.8995L45.5187 41.8989L45.5187 41.8989C45.1866 41.8318 44.8523 41.7775 44.5163 41.7359C43.7652 41.6517 43.1215 41.8707 42.0694 42.4747M46.3312 43.2645L48.8646 43.3508M44.7812 45.3786C45.6399 45.8933 46.6362 46.1881 47.6979 46.1881C48.7219 46.1881 49.7278 45.9089 50.6146 45.3786L51.6249 44.7732L50.5547 42.8575L50.5598 42.8544L50.4571 42.6828L50.2825 42.7803L50.2854 42.7856L49.4479 43.2869C49.3239 43.3605 49.1962 43.4263 49.0646 43.4841V43.2644M44.7812 45.3786L43.7709 44.7744L44.8412 42.8575L44.8361 42.8544L44.9387 42.6828L45.1134 42.7803L45.1105 42.7855L44.7812 45.3786ZM49.0646 43.2644C48.9989 43.2953 48.9323 43.3241 48.8646 43.3508M49.0646 43.2644V42.0425M48.8646 43.3508V41.8708M48.8646 43.3508L49.4397 41.7765M49.0646 42.0425C49.2057 42.0204 49.3424 41.9973 49.4746 41.9735M49.0646 42.0425V41.8708H48.8646M49.0646 42.0425C49.0084 42.0514 48.9515 42.0601 48.894 42.0686L48.8646 41.8708M49.4746 41.9735C49.6146 41.9492 49.7477 41.9248 49.874 41.9005M49.4746 41.9735C49.4749 41.9734 49.4751 41.9734 49.4753 41.9733L49.4397 41.7765M49.4746 41.9735C49.4744 41.9735 49.4742 41.9735 49.474 41.9736L49.4397 41.7765M49.874 41.9005C50.2386 41.8315 50.5486 41.7737 50.8781 41.7373L50.8784 41.7372C51.6611 41.6492 52.431 41.6983 53.4491 42.2834L53.4493 42.2835C55.548 43.4863 56.8312 45.8251 56.8312 49.209C56.8312 51.3179 56.178 53.3078 55.1629 54.8923C54.1464 56.4789 52.7763 57.6457 51.3543 58.128M49.874 41.9005C49.8741 41.9004 49.8742 41.9004 49.8743 41.9004L49.8364 41.704L49.8736 41.9005C49.8737 41.9005 49.8739 41.9005 49.874 41.9005ZM51.3543 58.128C51.1057 58.2121 50.9256 58.2338 50.7625 58.2205C50.5962 58.2069 50.4338 58.1562 50.2158 58.073L50.2172 58.0736L50.1432 58.2594M51.3543 58.128L51.4183 58.3172L51.3542 58.128C51.3542 58.128 51.3543 58.128 51.3543 58.128ZM50.1432 58.2594L50.2145 58.0725L49.9965 57.9858L49.9216 58.1712M50.1432 58.2594C50.5866 58.4286 50.8829 58.4986 51.4184 58.3174C54.3689 57.3169 57.0312 53.5082 57.0312 49.209C57.0312 45.7725 55.7246 43.357 53.5487 42.11L42.0694 42.4747M50.1432 58.2594L49.9216 58.1712M49.9216 58.1712L49.9955 57.9854L49.9894 57.9829C49.4878 57.7802 48.7137 57.4673 47.6979 57.4673C46.6793 57.4673 45.9038 57.7819 45.401 57.9858L45.3991 57.9866L45.4731 58.1724M49.9216 58.1712L49.9185 58.17C49.4192 57.9682 48.6748 57.6673 47.6979 57.6673C46.7191 57.6673 45.9736 57.9694 45.4731 58.1724M45.4731 58.1724L45.3979 57.9871L45.1804 58.0736L45.2514 58.2606M45.4731 58.1724L45.2514 58.2606M45.2514 58.2606L45.1775 58.0748L45.1789 58.0742C44.9612 58.1568 44.7995 58.2075 44.6338 58.2211C44.4716 58.2343 44.2921 58.2127 44.0444 58.1281L44.0442 58.1281C42.6243 57.6447 41.2535 56.4775 40.2358 54.8909C39.2195 53.3064 38.5646 51.3172 38.5646 49.209C38.5646 45.839 39.961 43.6878 42.0694 42.4747M45.2514 58.2606C44.8092 58.4286 44.5141 58.4999 43.9797 58.3174C41.0339 57.3145 38.3646 53.507 38.3646 49.209C38.3646 45.7737 39.794 43.5531 41.9698 42.3013L42.0694 42.4747M49.4397 41.7765C49.257 41.8096 49.0652 41.841 48.8646 41.8708M49.0646 36.5215V36.3215H48.8646H46.5312H46.3312V36.5215V39.1883L46.0703 39.1392C46.0703 39.1392 46.0703 39.1392 46.0703 39.1392C45.6884 39.0668 45.2497 38.9845 44.8142 38.9352L44.814 38.9351C43.5831 38.7972 42.2227 38.8992 40.6157 39.8233C37.4621 41.6366 35.8312 45.0484 35.8312 49.209C35.8312 54.4509 39.0434 59.3909 43.1849 60.8025C44.4596 61.2375 45.3809 61.0004 46.1288 60.7156L46.1306 60.7148L46.4479 60.5904L46.4485 60.5901C46.9338 60.398 47.2265 60.284 47.6979 60.284C48.1694 60.284 48.4633 60.3981 48.9485 60.5902L48.9497 60.5906L49.267 60.7139L49.2681 60.7143C50.015 60.9992 50.935 61.235 52.2082 60.8039L52.2083 60.8038C56.3644 59.3946 59.5646 54.4481 59.5646 49.209C59.5646 45.0486 57.9339 41.6305 54.7787 39.8219L54.6792 39.9954L54.7787 39.8219C53.1731 38.9016 51.8128 38.7996 50.5832 38.9375C50.1599 38.9841 49.7357 39.063 49.362 39.1324L49.3262 39.1391L49.3257 39.1391L49.0646 39.1883V36.5215Z" fill="white" stroke="white" stroke-width="0.4"/>
<path d="M23.8994 61.4C21.6327 61.4 19.686 61.0133 18.0594 60.24C16.4594 59.4667 15.006 58.3067 13.6994 56.76L17.2994 53.16C18.126 54.2533 19.086 55.1067 20.1794 55.72C21.2727 56.3067 22.606 56.6 24.1794 56.6C25.5927 56.6 26.7127 56.32 27.5394 55.76C28.3927 55.2 28.8194 54.4267 28.8194 53.44C28.8194 52.5867 28.5794 51.8933 28.0994 51.36C27.6194 50.8267 26.9794 50.3733 26.1794 50C25.406 49.6267 24.5394 49.2933 23.5794 49C22.646 48.68 21.6994 48.32 20.7394 47.92C19.806 47.52 18.9394 47.0267 18.1394 46.44C17.366 45.8267 16.7394 45.0533 16.2594 44.12C15.7794 43.16 15.5394 41.96 15.5394 40.52C15.5394 38.8133 15.9527 37.36 16.7794 36.16C17.606 34.96 18.7394 34.04 20.1794 33.4C21.6194 32.76 23.246 32.44 25.0594 32.44C26.9794 32.44 28.7127 32.8 30.2594 33.52C31.806 34.24 33.0727 35.1733 34.0594 36.32L30.4594 39.92C29.6327 39.0133 28.7794 38.3467 27.8994 37.92C27.046 37.4933 26.0727 37.28 24.9794 37.28C23.726 37.28 22.7394 37.52 22.0194 38C21.2994 38.48 20.9394 39.1733 20.9394 40.08C20.9394 40.8533 21.1794 41.48 21.6594 41.96C22.1394 42.44 22.766 42.8533 23.5394 43.2C24.3394 43.5467 25.206 43.88 26.1394 44.2C27.0994 44.52 28.046 44.88 28.9794 45.28C29.9394 45.68 30.806 46.2 31.5794 46.84C32.3794 47.48 33.0194 48.3067 33.4994 49.32C33.9794 50.3067 34.2194 51.5333 34.2194 53C34.2194 55.6133 33.2994 57.6667 31.4594 59.16C29.6194 60.6533 27.0994 61.4 23.8994 61.4ZM65.6703 61V56.16H72.8303C74.6436 56.16 76.2303 55.7867 77.5903 55.04C78.9503 54.2667 80.0036 53.1867 80.7503 51.8C81.5236 50.4133 81.9103 48.7733 81.9103 46.88C81.9103 45.04 81.5236 43.44 80.7503 42.08C79.977 40.6933 78.9103 39.6267 77.5503 38.88C76.1903 38.1067 74.617 37.72 72.8303 37.72H65.5503V32.88H72.9103C74.9903 32.88 76.9103 33.2267 78.6703 33.92C80.457 34.6133 82.0036 35.6 83.3103 36.88C84.6436 38.1333 85.6703 39.6133 86.3903 41.32C87.137 43.0267 87.5103 44.8933 87.5103 46.92C87.5103 48.9467 87.137 50.8267 86.3903 52.56C85.6703 54.2667 84.657 55.76 83.3503 57.04C82.0436 58.2933 80.497 59.2667 78.7103 59.96C76.9503 60.6533 75.0436 61 72.9903 61H65.6703ZM61.9503 61V32.88H67.3903V61H61.9503ZM99.3531 61.4C97.5931 61.4 96.0065 60.96 94.5931 60.08C93.1798 59.2 92.0731 58 91.2731 56.48C90.4731 54.96 90.0731 53.2533 90.0731 51.36C90.0731 49.44 90.4731 47.72 91.2731 46.2C92.0731 44.68 93.1798 43.48 94.5931 42.6C96.0065 41.72 97.5931 41.28 99.3531 41.28C100.74 41.28 101.98 41.56 103.073 42.12C104.166 42.68 105.033 43.4667 105.673 44.48C106.34 45.4667 106.7 46.5867 106.753 47.84V54.8C106.7 56.08 106.34 57.2133 105.673 58.2C105.033 59.1867 104.166 59.9733 103.073 60.56C101.98 61.12 100.74 61.4 99.3531 61.4ZM100.313 56.56C101.78 56.56 102.966 56.08 103.873 55.12C104.78 54.1333 105.233 52.8667 105.233 51.32C105.233 50.3067 105.02 49.4133 104.593 48.64C104.193 47.84 103.62 47.2267 102.873 46.8C102.153 46.3467 101.3 46.12 100.313 46.12C99.3531 46.12 98.4998 46.3467 97.7531 46.8C97.0331 47.2267 96.4598 47.84 96.0331 48.64C95.6331 49.4133 95.4331 50.3067 95.4331 51.32C95.4331 52.36 95.6331 53.28 96.0331 54.08C96.4598 54.8533 97.0331 55.4667 97.7531 55.92C98.4998 56.3467 99.3531 56.56 100.313 56.56ZM104.953 61V55.8L105.793 51.08L104.953 46.44V41.68H110.153V61H104.953ZM114.789 61V41.68H120.029V61H114.789ZM127.389 61V49.6C127.389 48.48 127.029 47.6133 126.309 47C125.615 46.36 124.749 46.04 123.709 46.04C123.015 46.04 122.389 46.1867 121.829 46.48C121.269 46.7467 120.829 47.1467 120.509 47.68C120.189 48.2133 120.029 48.8533 120.029 49.6L117.989 48.6C117.989 47.1067 118.309 45.8133 118.949 44.72C119.615 43.6267 120.509 42.7867 121.629 42.2C122.749 41.5867 124.015 41.28 125.429 41.28C126.762 41.28 127.975 41.5867 129.069 42.2C130.162 42.7867 131.029 43.6267 131.669 44.72C132.309 45.7867 132.629 47.08 132.629 48.6V61H127.389ZM139.989 61V49.6C139.989 48.48 139.629 47.6133 138.909 47C138.215 46.36 137.349 46.04 136.309 46.04C135.642 46.04 135.015 46.1867 134.429 46.48C133.869 46.7467 133.429 47.1467 133.109 47.68C132.789 48.2133 132.629 48.8533 132.629 49.6L129.629 48.88C129.735 47.3333 130.149 46 130.869 44.88C131.589 43.7333 132.535 42.8533 133.709 42.24C134.882 41.6 136.189 41.28 137.629 41.28C139.069 41.28 140.362 41.5867 141.509 42.2C142.655 42.7867 143.562 43.64 144.229 44.76C144.895 45.88 145.229 47.2133 145.229 48.76V61H139.989ZM173.474 61V32.88H178.914V61H173.474ZM177.474 61V56.2H193.034V61H177.474ZM177.474 48.96V44.32H191.634V48.96H177.474ZM177.474 37.68V32.88H192.834V37.68H177.474ZM210.188 61.44C208.135 61.44 206.215 61.0667 204.428 60.32C202.668 59.5733 201.122 58.5467 199.788 57.24C198.482 55.9067 197.455 54.36 196.708 52.6C195.962 50.8133 195.588 48.9067 195.588 46.88C195.588 44.8533 195.948 42.9733 196.668 41.24C197.415 39.48 198.442 37.9467 199.748 36.64C201.082 35.3067 202.628 34.28 204.388 33.56C206.148 32.8133 208.055 32.44 210.108 32.44C212.188 32.44 214.108 32.8133 215.868 33.56C217.628 34.28 219.162 35.3067 220.468 36.64C221.802 37.9467 222.842 39.48 223.588 41.24C224.335 43 224.708 44.8933 224.708 46.92C224.708 48.9467 224.335 50.84 223.588 52.6C222.842 54.36 221.802 55.9067 220.468 57.24C219.162 58.5467 217.628 59.5733 215.868 60.32C214.135 61.0667 212.242 61.44 210.188 61.44ZM210.108 56.36C211.922 56.36 213.495 55.96 214.828 55.16C216.162 54.36 217.202 53.2533 217.948 51.84C218.722 50.4267 219.108 48.7733 219.108 46.88C219.108 45.4933 218.895 44.2267 218.468 43.08C218.042 41.9333 217.428 40.9467 216.628 40.12C215.828 39.2667 214.882 38.6133 213.788 38.16C212.695 37.7067 211.468 37.48 210.108 37.48C208.348 37.48 206.788 37.88 205.428 38.68C204.095 39.4533 203.042 40.5467 202.268 41.96C201.522 43.3733 201.148 45.0133 201.148 46.88C201.148 48.2933 201.362 49.5867 201.788 50.76C202.242 51.9333 202.855 52.9333 203.628 53.76C204.428 54.5867 205.375 55.2267 206.468 55.68C207.588 56.1333 208.802 56.36 210.108 56.36Z" fill="white"/>
<g clip-path="url(#clip0_273_3491)">
<path d="M161.252 34.2369C162.141 26.1569 165.699 19.8724 173.703 16.2812" stroke="white" stroke-width="5" stroke-linecap="round" stroke-linejoin="round"/>
<path d="M168.827 24.2599C177.992 24.2599 184.302 21.0581 185.039 12.5745V10.627H179.123C165.859 10.627 161.458 14.5221 161.438 19.391C161.438 20.3648 161.438 22.3124 164.385 24.2599H168.807H168.827Z" stroke="white" stroke-width="4" stroke-linecap="round" stroke-linejoin="round"/>
</g>
<g clip-path="url(#clip1_273_3491)">
<path d="M162.266 47.0465C161.395 34.4027 157.913 24.5687 150.077 18.9492" stroke="white" stroke-width="4" stroke-linecap="round" stroke-linejoin="round"/>
<path d="M152.306 27.0966C142.343 27.0966 135.481 23.7777 134.68 14.9837V12.9648H141.112C155.533 12.9648 160.317 17.0025 160.34 22.0495C160.34 23.059 160.34 25.0778 157.135 27.0966H152.328H152.306Z" stroke="white" stroke-width="4" stroke-linecap="round" stroke-linejoin="round"/>
</g>
<rect x="158" y="31" width="6" height="30" rx="3" fill="white"/>
<defs>
<clipPath id="clip0_273_3491">
<rect width="37.1683" height="33.2512" fill="white" transform="translate(154.83)"/>
</clipPath>
<clipPath id="clip1_273_3491">
<rect width="37.1683" height="33.2512" fill="white" transform="matrix(-1 0 0 1 166.168 3.65625)"/>
</clipPath>
</defs>
</svg>
