<svg width="145" height="38" viewBox="0 0 145 38" fill="none" xmlns="http://www.w3.org/2000/svg">
<path d="M0.858008 37V1.55H9.80801V37H0.858008ZM7.95801 37V29.3H25.058V37H7.95801ZM44.9146 37.65C42.1813 37.65 39.6646 37.1833 37.3646 36.25C35.0646 35.3167 33.048 34.0167 31.3146 32.35C29.6146 30.6833 28.2813 28.7333 27.3146 26.5C26.348 24.2333 25.8646 21.8 25.8646 19.2C25.8646 16.6 26.3313 14.2 27.2646 12C28.2313 9.76667 29.5646 7.81666 31.2646 6.15C32.9646 4.48333 34.9646 3.2 37.2646 2.3C39.5646 1.36666 42.0813 0.899997 44.8146 0.899997C47.548 0.899997 50.0647 1.36666 52.3647 2.3C54.6647 3.2 56.6647 4.48333 58.3647 6.15C60.0647 7.81666 61.3813 9.76667 62.3147 12C63.2813 14.2333 63.7646 16.65 63.7646 19.25C63.7646 21.85 63.2813 24.2667 62.3147 26.5C61.3813 28.7333 60.0647 30.7 58.3647 32.4C56.6647 34.0667 54.6647 35.3667 52.3647 36.3C50.098 37.2 47.6146 37.65 44.9146 37.65ZM44.8146 29.65C46.8146 29.65 48.548 29.2167 50.0147 28.35C51.4813 27.4833 52.6146 26.2667 53.4146 24.7C54.2147 23.1333 54.6147 21.3 54.6147 19.2C54.6147 17.6667 54.3813 16.2667 53.9146 15C53.4813 13.7333 52.8313 12.65 51.9646 11.75C51.098 10.8167 50.0646 10.1 48.8646 9.6C47.6646 9.1 46.3146 8.85 44.8146 8.85C42.8146 8.85 41.0813 9.28333 39.6146 10.15C38.148 10.9833 37.0146 12.1833 36.2146 13.75C35.4146 15.3167 35.0146 17.1333 35.0146 19.2C35.0146 20.8 35.2313 22.25 35.6646 23.55C36.1313 24.8167 36.798 25.9167 37.6646 26.85C38.5313 27.75 39.5646 28.45 40.7646 28.95C41.9646 29.4167 43.3146 29.65 44.8146 29.65ZM85.9279 37.55C83.2279 37.55 80.7279 37.1 78.4279 36.2C76.1613 35.2667 74.1613 33.9667 72.4279 32.3C70.7279 30.6333 69.3946 28.7 68.4279 26.5C67.4946 24.2667 67.0279 21.85 67.0279 19.25C67.0279 16.6167 67.5113 14.2 68.4779 12C69.4779 9.76667 70.8613 7.83333 72.6279 6.2C74.3946 4.53333 76.4446 3.25 78.7779 2.35C81.1446 1.41667 83.6613 0.949999 86.3279 0.949999C89.4946 0.949999 92.3613 1.51667 94.9279 2.65C97.4946 3.75 99.5779 5.28333 101.178 7.25L95.1779 13.25C93.9779 11.8167 92.6613 10.75 91.2279 10.05C89.7946 9.31666 88.1279 8.95 86.2279 8.95C84.2946 8.95 82.5613 9.38333 81.0279 10.25C79.5279 11.0833 78.3279 12.2667 77.4279 13.8C76.5279 15.3333 76.0779 17.1333 76.0779 19.2C76.0779 21.2667 76.4946 23.0833 77.3279 24.65C78.1946 26.2167 79.3613 27.4333 80.8279 28.3C82.3279 29.1667 84.0446 29.6 85.9779 29.6C87.9113 29.6 89.5446 29.2333 90.8779 28.5C92.2446 27.7667 93.2779 26.7 93.9779 25.3C94.7113 23.9 95.0779 22.2333 95.0779 20.3L101.128 24.2L84.9779 23.8V16.5H104.078V17.85C104.078 22.0833 103.311 25.6667 101.778 28.6C100.245 31.5333 98.1113 33.7667 95.3779 35.3C92.6779 36.8 89.5279 37.55 85.9279 37.55ZM126.116 37.65C123.382 37.65 120.866 37.1833 118.566 36.25C116.266 35.3167 114.249 34.0167 112.516 32.35C110.816 30.6833 109.482 28.7333 108.516 26.5C107.549 24.2333 107.066 21.8 107.066 19.2C107.066 16.6 107.532 14.2 108.466 12C109.432 9.76667 110.766 7.81666 112.466 6.15C114.166 4.48333 116.166 3.2 118.466 2.3C120.766 1.36666 123.282 0.899997 126.016 0.899997C128.749 0.899997 131.266 1.36666 133.566 2.3C135.866 3.2 137.866 4.48333 139.566 6.15C141.266 7.81666 142.582 9.76667 143.516 12C144.482 14.2333 144.966 16.65 144.966 19.25C144.966 21.85 144.482 24.2667 143.516 26.5C142.582 28.7333 141.266 30.7 139.566 32.4C137.866 34.0667 135.866 35.3667 133.566 36.3C131.299 37.2 128.816 37.65 126.116 37.65ZM126.016 29.65C128.016 29.65 129.749 29.2167 131.216 28.35C132.682 27.4833 133.816 26.2667 134.616 24.7C135.416 23.1333 135.816 21.3 135.816 19.2C135.816 17.6667 135.582 16.2667 135.116 15C134.682 13.7333 134.032 12.65 133.166 11.75C132.299 10.8167 131.266 10.1 130.066 9.6C128.866 9.1 127.516 8.85 126.016 8.85C124.016 8.85 122.282 9.28333 120.816 10.15C119.349 10.9833 118.216 12.1833 117.416 13.75C116.616 15.3167 116.216 17.1333 116.216 19.2C116.216 20.8 116.432 22.25 116.866 23.55C117.332 24.8167 117.999 25.9167 118.866 26.85C119.732 27.75 120.766 28.45 121.966 28.95C123.166 29.4167 124.516 29.65 126.016 29.65Z" fill="white"/>
</svg>
